<?xml version="1.0" encoding="utf-8"?>
<!-- Generator: Adobe Illustrator 16.0.0, SVG Export Plug-In . SVG Version: 6.00 Build 0)  -->
<!DOCTYPE svg PUBLIC "-//W3C//DTD SVG 1.1//EN" "http://www.w3.org/Graphics/SVG/1.1/DTD/svg11.dtd">
<svg version="1.1" id="Layer_1" xmlns:sketch="http://www.bohemiancoding.com/sketch/ns"
	 xmlns="http://www.w3.org/2000/svg" xmlns:xlink="http://www.w3.org/1999/xlink" x="0px" y="0px" width="447px" height="98px"
	 viewBox="0 0 447 98" enable-background="new 0 0 447 98" xml:space="preserve">
<title>logo</title>
<desc>Created with Sketch.</desc>
<path id="Fill-9" fill="#38305B" d="M428.923,30.875h-0.764v1.041h0.783c0.396,0,0.607-0.211,0.607-0.516
	C429.55,31.049,429.311,30.875,428.923,30.875L428.923,30.875z M429.577,32.458l0.866,1.271h-0.911l-0.757-1.142h-0.616v1.142
	h-0.783v-3.546h1.575c0.847,0,1.391,0.433,1.391,1.17C430.342,31.933,430.029,32.293,429.577,32.458L429.577,32.458z
	 M428.757,29.087c-1.685,0-2.956,1.336-2.956,2.976c0,1.64,1.262,2.958,2.938,2.958c1.686,0,2.957-1.336,2.957-2.976
	S430.434,29.087,428.757,29.087L428.757,29.087z M428.739,35.388c-1.87,0-3.325-1.502-3.325-3.326c0-1.823,1.474-3.344,3.343-3.344
	c1.871,0,3.327,1.502,3.327,3.326C432.084,33.869,430.61,35.388,428.739,35.388L428.739,35.388z"/>
<g id="Page-1_1_" sketch:type="MSPage">
	<g id="Desktop-HD" transform="translate(-489.000000, -57.000000)" sketch:type="MSArtboardGroup">
		<g id="Header" transform="translate(137.000000, 54.000000)" sketch:type="MSLayerGroup">
			<g id="logo">
				<g transform="translate(352.000000, 3.000000)">
					<g id="Page-1">
						<path id="Fill-1" sketch:type="MSShapeGroup" fill="#40356F" d="M280.87,63.176c0.64-18.05,4.29-38.379,6.937-49.045
							c2.557-0.091,5.295-0.182,8.216-0.182c10.04-0.091,28.569,0.364,28.569-7.203c0-2.735-2.829-5.287-7.484-6.746
							c-1.644,2.37-3.469,3.281-7.85,3.737c-10.862,1.277-23.916,0-39.432,1.733c-20.902,2.278-33.5,9.389-33.5,19.144
							c0,5.743,4.291,9.663,10.68,9.663c3.926,0,8.215-1.915,10.133-4.558c-3.195-1.731-4.473-3.282-4.473-5.652
							c0-5.014,7.941-7.931,22.545-9.299c-5.75,13.311-9.767,41.389-10.406,59.804c-0.091,3.829,0,7.294,0.365,10.666
							c0.548,6.017,4.473,9.754,10.498,9.754c3.65,0,8.762-1.185,8.943-2.096C281.691,87.334,280.414,77.124,280.87,63.176
							 M213.689,67.46c-1.004,0-2.099-1.185-2.099-3.828c0-6.838,7.393-17.959,10.771-17.959c0.913,0,1.459,0.73,2.008,2.097
							C222.817,56.43,216.793,67.46,213.689,67.46 M241.255,62.537c-1.187,1.095-3.011,2.279-3.925,2.279
							c-1.187,0-2.464-1.731-2.464-5.47c0-2.462,0.547-6.382,1.46-10.483c-1.004-3.829-6.389-9.754-14.878-9.754
							c-12.14,0-22.911,12.215-22.911,24.706c0,9.662,6.481,13.947,12.78,13.947c6.024-0.091,12.048-4.102,15.244-9.48
							c1.003,2.369,3.01,4.559,6.936,4.559c4.018,0,7.303-2.28,9.037-4.285C244.998,65.729,243.629,63.541,241.255,62.537
							 M301.865,67.46c-1.004,0-2.098-1.185-2.098-3.828c0-6.838,7.393-17.959,10.77-17.959c0.913,0,1.46,0.73,2.008,2.097
							C310.994,56.43,304.969,67.46,301.865,67.46 M354.808,54.607c-3.469-2.371-5.021-4.285-5.021-6.474
							c5.751,0.183,10.041-2.461,10.041-6.564c-1.188-2.188-7.12-3.737-13.966-1.64c-5.294,1.731-8.58,5.834-8.58,10.666
							c0,0.812,0.08,1.568,0.215,2.287c-4.114,5.735-9.649,11.934-12.081,11.934c-1.097,0-2.373-1.914-2.373-5.287
							c0-2.735,0.547-6.564,1.459-10.666c-1.004-3.829-6.389-9.754-14.877-9.754c-12.141,0-22.911,12.215-22.911,24.614
							c0,9.754,6.572,14.131,12.779,14.039c6.024-0.091,12.049-4.102,15.243-9.572c1.004,2.461,3.012,4.65,6.754,4.65
							c7.355,0,14.749-8.244,18.701-14.346c3.435,4.248,8.684,6.648,8.684,10.699c0,3.099-2.1,5.014-5.021,5.014
							c-3.012,0-5.568-2.188-6.846-4.832c-2.921,0.092-4.563,3.1-3.195,5.834c1.552,2.918,6.116,5.105,12.414,5.105
							c8.032,0,17.16-4.923,17.16-13.127C363.388,62.629,360.649,58.617,354.808,54.607 M407.294,53.786
							c0-4.649,2.1-9.208,3.834-9.208c0.822,0,1.552,1.368,1.552,3.374c0,4.194-2.191,7.658-5.021,10.666
							C407.385,57.158,407.294,55.519,407.294,53.786 M440.884,48.955c-6.846,12.854-16.064,21.605-23.093,21.605
							c-3.104,0-5.658-1.64-7.485-4.558c5.387-3.738,11.501-9.664,11.501-17.686c0-7.475-4.198-11.942-11.227-11.942
							c-9.857,0-17.525,9.572-17.525,21.606c0,4.408,1.165,8.37,3.232,11.656c-3.094,2.664-6.471,4.479-9.622,4.479
							c-2.921,0-6.938-2.734-6.938-10.757s1.37-14.769,2.739-20.785c10.04-0.183,12.961-0.912,13.874-3.464
							c0.639-1.732,0.913-2.553,1.095-3.829h-13.234c0.912-3.919,1.643-7.657,1.643-11.304c0-7.657-3.469-8.57-13.418-8.296
							c0.092,5.926-1.004,12.398-2.281,19.235c-3.56-0.273-6.572-0.729-8.763-1.367c-0.73,1.823-1.096,3.282-1.096,4.649
							c0,2.735,1.733,4.286,4.746,4.286h3.834c-0.913,5.651-1.643,11.395-1.643,17.047c0,13.766,5.933,21.697,16.612,21.697
							c7.549,0,13.53-3.271,16.917-6.6c3.802,3.027,8.793,4.775,14.482,4.775c16.978,0,31.765-23.246,31.765-27.621
							C447,48.772,444.535,47.769,440.884,48.955 M109.628,63.176c0-4.376,1.095-10.666,1.095-13.036
							c0-7.202-2.647-10.21-8.489-10.21c-1.643,0-3.469,0.273-5.02,0.547c0.548,1.458,0.821,3.919,0.821,7.202
							c0,3.464-0.456,7.567-0.73,11.486c-3.377,5.379-6.938,7.75-8.307,7.75c-1.004,0-1.643-1.367-1.643-4.832
							c0-5.014,0.821-12.308,0.821-15.315c0-5.106-1.916-7.293-6.389-7.293c-2.556,0-5.112,0.456-7.759,0.912
							c0.64,3.009,0.822,5.105,0.822,9.208c0,6.29-0.639,12.489-0.639,15.589c0,7.658,3.195,11.669,9.584,11.669
							c5.568,0,10.406-4.193,13.966-8.661c1.187,5.561,4.563,8.752,9.675,8.752c3.195,0,6.755-1.459,7.484-5.196
							C111.362,69.648,109.628,68.189,109.628,63.176 M66.907,8.387c-3.651,0-6.664,2.097-8.854,5.744
							c-1.552,0.273-3.286,0.365-5.477,0.365c-7.119,0-15.973-2.28-24.28-2.28c-12.96,0-20.993,8.661-20.993,15.772
							c0,4.466,3.195,7.384,8.124,7.384c2.646,0,5.659-1.003,7.941-2.644c-1.826-6.381,2.829-10.483,12.322-10.483
							c5.02,0,10.771,0.82,16.612,0.82c0.913,0,1.825,0,2.739-0.091c-0.457,2.279-0.64,4.741-0.64,7.384
							c0,9.299,1.552,20.239,1.552,29.902c0,15.771-8.671,25.981-21.998,25.981c-9.858,0-20.994-7.566-25.192-17.229
							C2.83,70.104,0,73.934,0,78.4C0,88.884,16.339,98,29.939,98c21.816,0,38.428-14.404,38.428-33.639
							c0-10.393-1.46-21.788-1.46-34.46c0-4.558,0.456-7.749,1.734-10.392c4.016-2.461,5.477-5.47,5.933-7.02
							C73.935,10.393,70.192,8.387,66.907,8.387 M123.87,74.936c-0.639,0-1.004-0.364-1.004-1.094c0-1.914,2.1-4.284,5.385-6.654
							c0.273,0.637,0.456,1.275,0.456,2.006C128.707,72.292,125.512,74.936,123.87,74.936 M183.474,65.911
							c-3.924,4.558-8.854,8.204-13.326,8.204c-2.92,0-6.937-2.734-6.937-10.757s1.369-14.769,2.739-20.785
							c10.04-0.183,12.961-0.912,13.874-3.464c0.638-1.732,0.912-2.553,1.095-3.829h-13.234c0.912-3.919,1.642-7.657,1.642-11.304
							c0-7.657-3.468-8.57-13.417-8.296c0.091,5.926-1.005,12.398-2.283,19.235c-3.559-0.273-6.572-0.729-8.762-1.367
							c-0.73,1.823-1.096,3.282-1.096,4.649c0,2.735,1.734,4.286,4.747,4.286h3.834c-0.455,2.816-0.864,5.657-1.161,8.497
							c-3.979,0.765-9.233,2.417-14.449,4.63c-0.456-0.364-1.003-0.638-1.46-1.002c-3.742-2.462-5.659-4.468-5.659-6.474
							c5.75,0.183,10.04-2.461,10.04-6.564c-1.187-2.188-7.119-3.737-13.965-1.64c-5.294,1.731-8.58,5.834-8.58,10.666
							c0,5.742,3.651,8.934,6.846,11.76c-4.838,3.282-8.216,6.929-8.216,10.302c0,5.287,4.747,7.657,10.315,7.657
							c8.032,0,17.799-4.923,17.799-13.127c0-2.554-0.913-5.015-2.738-7.385c3.247-1.447,6.566-2.745,9.678-3.755
							c-0.057,1.163-0.094,2.324-0.094,3.481c0,13.766,5.933,21.697,16.613,21.697c11.957,0,19.989-8.205,19.989-11.852
							C187.308,67.733,185.939,66.275,183.474,65.911"/>
					</g>
				</g>
			</g>
		</g>
	</g>
</g>
</svg>
